<svg xmlns="http://www.w3.org/2000/svg" width="1024" height="1024" viewBox="0 0 500 500" fill="none" shape-rendering="geometricPrecision">
  <defs>
    <linearGradient id="blueGrad" x1="0" y1="0" x2="1" y2="0">
      <stop offset="0%" stop-color="#2563eb"/>
      <stop offset="100%" stop-color="#60a5fa"/>
    </linearGradient>
  </defs>
  
  <!-- Background Container -->
  <rect width="500" height="500" rx="110" fill="url(#blueGrad)"/>
  
  <!-- Centered Icon (Scaled 12.5x) -->
  <!-- Base icon is 24x24. 12.5 * 24 = 300px. -->
  <!-- Margins: (500 - 300) / 2 = 100px offset -->
  <g transform="translate(100, 100) scale(12.5)">
    <g stroke="white" stroke-width="2" stroke-linecap="round" stroke-linejoin="round">
      <!-- Main Star -->
      <path d="M9.937 15.5A2 2 0 0 0 8.5 14.063l-6.135-1.582a.5.5 0 0 1 0-.962L8.5 9.936A2 2 0 0 0 9.937 8.5l1.582-6.135a.5.5 0 0 1 .963 0L14.063 8.5A2 2 0 0 0 15.5 9.937l6.135 1.581a.5.5 0 0 1 0 .964L15.5 14.063a2 2 0 0 0-1.437 1.437l-1.582 6.135a.5.5 0 0 1-.963 0z"/>
      <!-- Top Right Sparkle -->
      <path d="M20 3v4"/>
      <path d="M22 5h-4"/>
      <!-- Bottom Left Sparkle -->
      <path d="M4 17v2"/>
      <path d="M5 18H3"/>
    </g>
  </g>
</svg>